<svg width="176" height="88" viewBox="0 0 176 88" fill="none" xmlns="http://www.w3.org/2000/svg">
<path d="M88 28.2031C92.5232 28.2031 96.2031 24.5232 96.2031 20C96.2031 15.4768 92.5232 11.7969 88 11.7969C83.4768 11.7969 79.7969 15.4768 79.7969 20C79.7969 24.5232 83.4768 28.2031 88 28.2031ZM88 14.1406C91.2309 14.1406 93.8594 16.7691 93.8594 20C93.8594 23.2309 91.2309 25.8594 88 25.8594C84.7691 25.8594 82.1406 23.2309 82.1406 20C82.1406 16.7691 84.7691 14.1406 88 14.1406Z" fill="#EA7752"/>
<path d="M70.4219 31.7188C70.4219 33.6573 71.999 35.2344 73.9375 35.2344C74.2991 35.2344 74.6482 35.1794 74.9769 35.0774C76.6797 36.5648 78.5145 37.7198 80.4455 38.5169C81.0831 39.4138 82.1306 40 83.3125 40C83.7969 40 84.2587 39.9015 84.679 39.7235C85.7709 39.9066 86.8859 40 88 40C89.114 40 90.2291 39.9066 91.321 39.7235C91.7413 39.9015 92.2031 40 92.6875 40C93.8694 40 94.9169 39.4138 95.5545 38.5169C97.4855 37.7198 99.3204 36.5648 101.023 35.0774C101.352 35.1794 101.701 35.2344 102.062 35.2344C104.001 35.2344 105.578 33.6573 105.578 31.7188V29.3832C107.163 26.4266 108 23.189 108 20C108 8.9875 99.0118 0 88 0C76.9876 0 68 8.9882 68 20C68 23.1889 68.8366 26.4266 70.4219 29.3832V31.7188ZM79.7969 35.6098C78.7952 35.0625 77.817 34.3961 76.8911 33.6294C77.2627 33.0555 77.4531 32.3873 77.4531 31.7188C77.4531 31.0726 77.9788 30.5469 78.625 30.5469C79.2712 30.5469 79.7969 31.0726 79.7969 31.7188V35.6098ZM86.6447 37.6027C86.763 37.2512 86.8281 36.8753 86.8281 36.4844V34.0625C86.8281 33.4163 87.3538 32.8906 88 32.8906C88.6462 32.8906 89.1719 33.4163 89.1719 34.0625V36.4844C89.1719 36.8753 89.237 37.2512 89.3553 37.6027C88.4544 37.6709 87.5455 37.6709 86.6447 37.6027V37.6027ZM96.2031 35.6098V31.7188C96.2031 31.0726 96.7288 30.5469 97.375 30.5469C98.0212 30.5469 98.5469 31.0726 98.5469 31.7188C98.5469 32.386 98.7364 33.0544 99.1089 33.6293C98.183 34.3961 97.2048 35.0624 96.2031 35.6098ZM70.3438 20C70.3438 10.2643 78.2643 2.34375 88 2.34375C97.7357 2.34375 105.656 10.2643 105.656 20C105.656 22.8894 104.87 25.8341 103.382 28.5158C103.285 28.6898 103.234 28.8854 103.234 29.0844V31.7188C103.234 32.3649 102.709 32.8906 102.062 32.8906C101.415 32.8906 100.891 32.3637 100.891 31.7188C100.891 29.7802 99.3135 28.2031 97.375 28.2031C95.4365 28.2031 93.8594 29.7802 93.8594 31.7188V36.4844C93.8594 37.1305 93.3337 37.6562 92.6875 37.6562C92.0413 37.6562 91.5156 37.1305 91.5156 36.4844V34.0625C91.5156 32.124 89.9385 30.5469 88 30.5469C86.0615 30.5469 84.4844 32.124 84.4844 34.0625V36.4844C84.4844 37.1305 83.9587 37.6562 83.3125 37.6562C82.6663 37.6562 82.1406 37.1305 82.1406 36.4844V31.7188C82.1406 29.7802 80.5635 28.2031 78.625 28.2031C76.6865 28.2031 75.1094 29.7802 75.1094 31.7188C75.1094 32.3635 74.5849 32.8906 73.9375 32.8906C73.2913 32.8906 72.7656 32.3649 72.7656 31.7188V29.0844C72.7656 28.8854 72.715 28.6898 72.6184 28.5158C71.1303 25.834 70.3438 22.8893 70.3438 20V20Z" fill="#EA7752"/>
<path d="M74.7661 25.5163L77.1099 23.1726C77.5675 22.7149 77.5675 21.973 77.1099 21.5153C76.6523 21.0577 75.9103 21.0577 75.4526 21.5153L73.1089 23.8591C72.6512 24.3167 72.6512 25.0587 73.1089 25.5163C73.5665 25.974 74.3086 25.9739 74.7661 25.5163Z" fill="#EA7752"/>
<path d="M101.234 25.5163C101.692 25.974 102.433 25.974 102.891 25.5163C103.349 25.0587 103.349 24.3167 102.891 23.859L100.547 21.5153C100.09 21.0577 99.3478 21.0577 98.8901 21.5153C98.4325 21.973 98.4325 22.7149 98.8901 23.1726L101.234 25.5163Z" fill="#EA7752"/>
<path d="M80.9688 9.45312H83.3125C83.9597 9.45312 84.4844 8.92844 84.4844 8.28125C84.4844 7.63406 83.9597 7.10938 83.3125 7.10938H80.9688C80.3216 7.10938 79.7969 7.63406 79.7969 8.28125C79.7969 8.92844 80.3216 9.45312 80.9688 9.45312Z" fill="#EA7752"/>
<path d="M92.6875 9.45312H95.0312C95.6784 9.45312 96.2031 8.92844 96.2031 8.28125C96.2031 7.63406 95.6784 7.10938 95.0312 7.10938H92.6875C92.0403 7.10938 91.5156 7.63406 91.5156 8.28125C91.5156 8.92844 92.0403 9.45312 92.6875 9.45312Z" fill="#EA7752"/>
<path d="M76.2813 16.4844C76.9284 16.4844 77.4531 15.9597 77.4531 15.3125V12.9687C77.4531 12.3216 76.9284 11.7969 76.2813 11.7969C75.6341 11.7969 75.1094 12.3216 75.1094 12.9687V15.3125C75.1094 15.9597 75.6341 16.4844 76.2813 16.4844Z" fill="#EA7752"/>
<path d="M99.7188 16.4844C100.366 16.4844 100.891 15.9597 100.891 15.3125V12.9687C100.891 12.3216 100.366 11.7969 99.7188 11.7969C99.0716 11.7969 98.5469 12.3216 98.5469 12.9687V15.3125C98.5469 15.9597 99.0716 16.4844 99.7188 16.4844Z" fill="#EA7752"/>
<path d="M12.7614 52.3771C14.8285 52.3771 16.6953 52.8622 18.3617 53.8325C20.0492 54.8028 21.3676 56.1634 22.3168 57.9142C23.2871 59.6438 23.7722 61.6055 23.7722 63.7993C23.7722 65.993 23.2871 67.9653 22.3168 69.716C21.3676 71.4457 20.0492 72.8063 18.3617 73.7977C16.6953 74.768 14.8285 75.2531 12.7614 75.2531C10.6731 75.2531 8.78521 74.768 7.09772 73.7977C5.43132 72.8063 4.11297 71.4457 3.14266 69.716C2.17236 67.9653 1.6872 65.993 1.6872 63.7993C1.6872 61.6055 2.17236 59.6438 3.14266 57.9142C4.11297 56.1634 5.43132 54.8028 7.09772 53.8325C8.78521 52.8622 10.6731 52.3771 12.7614 52.3771ZM12.7614 55.731C11.327 55.731 10.0508 56.0579 8.93287 56.7118C7.8149 57.3657 6.93952 58.3044 6.30671 59.5278C5.69499 60.7513 5.38914 62.1751 5.38914 63.7993C5.38914 65.4235 5.69499 66.8473 6.30671 68.0707C6.93952 69.2942 7.8149 70.2328 8.93287 70.8867C10.0508 71.5406 11.327 71.8676 12.7614 71.8676C14.1746 71.8676 15.4297 71.5406 16.5266 70.8867C17.6445 70.2328 18.5094 69.2942 19.1211 68.0707C19.7539 66.8473 20.0703 65.4235 20.0703 63.7993C20.0703 62.1751 19.7539 60.7513 19.1211 59.5278C18.5094 58.3044 17.6445 57.3657 16.5266 56.7118C15.4297 56.0579 14.1746 55.731 12.7614 55.731ZM34.4047 57.3446C35.9867 57.3446 37.3367 57.7349 38.4546 58.5153C39.5726 59.2958 40.3636 60.3294 40.8277 61.6161V57.5661H44.4347V75.1898C44.4347 76.8141 44.0972 78.2484 43.4222 79.4929C42.7683 80.7586 41.8191 81.75 40.5746 82.4671C39.33 83.1843 37.8535 83.5429 36.1449 83.5429C33.698 83.5429 31.7152 82.9628 30.1965 81.8027C28.6988 80.6425 27.7602 79.0711 27.3805 77.0883H30.9559C31.2512 78.1219 31.8207 78.9234 32.6644 79.4929C33.5082 80.0836 34.584 80.3789 35.8918 80.3789C37.3261 80.3789 38.5074 79.9359 39.4355 79.05C40.3636 78.164 40.8277 76.8773 40.8277 75.1898V70.95C40.3636 72.2367 39.5726 73.2703 38.4546 74.0508C37.3367 74.8313 35.9867 75.2215 34.4047 75.2215C32.8859 75.2215 31.5254 74.8629 30.323 74.1457C29.1418 73.4285 28.2137 72.3949 27.5387 71.0449C26.8637 69.695 26.5262 68.1024 26.5262 66.2672C26.5262 64.4532 26.8637 62.8712 27.5387 61.5212C28.2137 60.1712 29.1418 59.1376 30.323 58.4204C31.5254 57.7032 32.8859 57.3446 34.4047 57.3446ZM35.5121 60.5087C33.909 60.5087 32.6223 61.0255 31.6519 62.0591C30.7027 63.0715 30.2281 64.4743 30.2281 66.2672C30.2281 68.0602 30.7027 69.4735 31.6519 70.5071C32.6223 71.5196 33.909 72.0258 35.5121 72.0258C36.5246 72.0258 37.4316 71.7938 38.2332 71.3297C39.0347 70.8446 39.6675 70.1696 40.1316 69.3047C40.5956 68.4399 40.8277 67.4274 40.8277 66.2672C40.8277 65.1282 40.5956 64.1262 40.1316 63.2614C39.6675 62.3755 39.0347 61.7005 38.2332 61.2364C37.4316 60.7512 36.5246 60.5087 35.5121 60.5087ZM55.7558 57.3446C57.3378 57.3446 58.6878 57.7349 59.8058 58.5153C60.9237 59.2958 61.7147 60.3294 62.1788 61.6161V57.5661H65.7858V75H62.1788V70.95C61.7147 72.2367 60.9237 73.2703 59.8058 74.0508C58.6878 74.8313 57.3378 75.2215 55.7558 75.2215C54.237 75.2215 52.8765 74.8629 51.6742 74.1457C50.4929 73.4285 49.5648 72.3949 48.8898 71.0449C48.2148 69.695 47.8773 68.1024 47.8773 66.2672C47.8773 64.4532 48.2148 62.8712 48.8898 61.5212C49.5648 60.1712 50.4929 59.1376 51.6742 58.4204C52.8765 57.7032 54.237 57.3446 55.7558 57.3446ZM56.8632 60.5087C55.2601 60.5087 53.9734 61.0255 53.0031 62.0591C52.0539 63.0715 51.5792 64.4743 51.5792 66.2672C51.5792 68.0602 52.0539 69.4735 53.0031 70.5071C53.9734 71.5196 55.2601 72.0258 56.8632 72.0258C57.8757 72.0258 58.7827 71.7938 59.5843 71.3297C60.3858 70.8446 61.0186 70.1696 61.4827 69.3047C61.9468 68.4399 62.1788 67.4274 62.1788 66.2672C62.1788 65.1282 61.9468 64.1262 61.4827 63.2614C61.0186 62.3755 60.3858 61.7005 59.5843 61.2364C58.7827 60.7512 57.8757 60.5087 56.8632 60.5087ZM73.7214 60.9833C74.312 59.8442 75.1558 58.9477 76.2526 58.2938C77.3495 57.6188 78.6151 57.2813 80.0495 57.2813V61.2048H78.9737C77.3917 61.2048 76.1155 61.595 75.1452 62.3755C74.196 63.1348 73.7214 64.4004 73.7214 66.1723V75H70.1144V57.5661H73.7214V60.9833ZM86.359 66.3305V75H82.752V52.6618H90.3457C92.9191 52.6618 94.8492 53.2736 96.1359 54.497C97.4437 55.7204 98.0976 57.3974 98.0976 59.5278C98.0976 61.6372 97.4332 63.3036 96.1043 64.527C94.7754 65.7293 92.8559 66.3305 90.3457 66.3305H86.359ZM89.966 63.388C92.9402 63.388 94.4273 62.1012 94.4273 59.5278C94.4273 58.2622 94.0688 57.3024 93.3516 56.6485C92.6555 55.9735 91.527 55.636 89.966 55.636H86.359V63.388H89.966ZM108.253 57.3446C109.835 57.3446 111.185 57.7349 112.303 58.5153C113.421 59.2958 114.212 60.3294 114.676 61.6161V57.5661H118.283V75H114.676V70.95C114.212 72.2367 113.421 73.2703 112.303 74.0508C111.185 74.8313 109.835 75.2215 108.253 75.2215C106.734 75.2215 105.374 74.8629 104.171 74.1457C102.99 73.4285 102.062 72.3949 101.387 71.0449C100.712 69.695 100.375 68.1024 100.375 66.2672C100.375 64.4532 100.712 62.8712 101.387 61.5212C102.062 60.1712 102.99 59.1376 104.171 58.4204C105.374 57.7032 106.734 57.3446 108.253 57.3446ZM109.36 60.5087C107.757 60.5087 106.471 61.0255 105.5 62.0591C104.551 63.0715 104.076 64.4743 104.076 66.2672C104.076 68.0602 104.551 69.4735 105.5 70.5071C106.471 71.5196 107.757 72.0258 109.36 72.0258C110.373 72.0258 111.28 71.7938 112.081 71.3297C112.883 70.8446 113.516 70.1696 113.98 69.3047C114.444 68.4399 114.676 67.4274 114.676 66.2672C114.676 65.1282 114.444 64.1262 113.98 63.2614C113.516 62.3755 112.883 61.7005 112.081 61.2364C111.28 60.7512 110.373 60.5087 109.36 60.5087ZM129.604 57.3446C131.186 57.3446 132.536 57.7349 133.654 58.5153C134.772 59.2958 135.563 60.3294 136.027 61.6161V57.5661H139.634V75.1898C139.634 76.8141 139.297 78.2484 138.622 79.4929C137.968 80.7586 137.019 81.75 135.774 82.4671C134.529 83.1843 133.053 83.5429 131.344 83.5429C128.897 83.5429 126.915 82.9628 125.396 81.8027C123.898 80.6425 122.96 79.0711 122.58 77.0883H126.155C126.451 78.1219 127.02 78.9234 127.864 79.4929C128.708 80.0836 129.783 80.3789 131.091 80.3789C132.526 80.3789 133.707 79.9359 134.635 79.05C135.563 78.164 136.027 76.8773 136.027 75.1898V70.95C135.563 72.2367 134.772 73.2703 133.654 74.0508C132.536 74.8313 131.186 75.2215 129.604 75.2215C128.085 75.2215 126.725 74.8629 125.522 74.1457C124.341 73.4285 123.413 72.3949 122.738 71.0449C122.063 69.695 121.726 68.1024 121.726 66.2672C121.726 64.4532 122.063 62.8712 122.738 61.5212C123.413 60.1712 124.341 59.1376 125.522 58.4204C126.725 57.7032 128.085 57.3446 129.604 57.3446ZM130.712 60.5087C129.108 60.5087 127.822 61.0255 126.851 62.0591C125.902 63.0715 125.428 64.4743 125.428 66.2672C125.428 68.0602 125.902 69.4735 126.851 70.5071C127.822 71.5196 129.108 72.0258 130.712 72.0258C131.724 72.0258 132.631 71.7938 133.433 71.3297C134.234 70.8446 134.867 70.1696 135.331 69.3047C135.795 68.4399 136.027 67.4274 136.027 66.2672C136.027 65.1282 135.795 64.1262 135.331 63.2614C134.867 62.3755 134.234 61.7005 133.433 61.2364C132.631 60.7512 131.724 60.5087 130.712 60.5087ZM150.955 57.3446C152.537 57.3446 153.887 57.7349 155.005 58.5153C156.123 59.2958 156.914 60.3294 157.378 61.6161V57.5661H160.985V75H157.378V70.95C156.914 72.2367 156.123 73.2703 155.005 74.0508C153.887 74.8313 152.537 75.2215 150.955 75.2215C149.436 75.2215 148.076 74.8629 146.874 74.1457C145.692 73.4285 144.764 72.3949 144.089 71.0449C143.414 69.695 143.077 68.1024 143.077 66.2672C143.077 64.4532 143.414 62.8712 144.089 61.5212C144.764 60.1712 145.692 59.1376 146.874 58.4204C148.076 57.7032 149.436 57.3446 150.955 57.3446ZM152.063 60.5087C150.46 60.5087 149.173 61.0255 148.203 62.0591C147.253 63.0715 146.779 64.4743 146.779 66.2672C146.779 68.0602 147.253 69.4735 148.203 70.5071C149.173 71.5196 150.46 72.0258 152.063 72.0258C153.075 72.0258 153.982 71.7938 154.784 71.3297C155.585 70.8446 156.218 70.1696 156.682 69.3047C157.146 68.4399 157.378 67.4274 157.378 66.2672C157.378 65.1282 157.146 64.1262 156.682 63.2614C156.218 62.3755 155.585 61.7005 154.784 61.2364C153.982 60.7512 153.075 60.5087 152.063 60.5087ZM168.921 60.9833C169.511 59.8442 170.355 58.9477 171.452 58.2938C172.549 57.6188 173.815 57.2813 175.249 57.2813V61.2048H174.173C172.591 61.2048 171.315 61.595 170.345 62.3755C169.395 63.1348 168.921 64.4004 168.921 66.1723V75H165.314V57.5661H168.921V60.9833Z" fill="#EA7752"/>
</svg>
