<svg width="32" height="32" viewBox="0 0 32 32" fill="none" xmlns="http://www.w3.org/2000/svg">
<g clip-path="url(#clip0)">
<path d="M12.0003 29.3332C12.7367 29.3332 13.3337 28.7362 13.3337 27.9998C13.3337 27.2635 12.7367 26.6665 12.0003 26.6665C11.2639 26.6665 10.667 27.2635 10.667 27.9998C10.667 28.7362 11.2639 29.3332 12.0003 29.3332Z" stroke="white" stroke-width="3" stroke-linecap="round" stroke-linejoin="round"/>
<path d="M26.6663 29.3332C27.4027 29.3332 27.9997 28.7362 27.9997 27.9998C27.9997 27.2635 27.4027 26.6665 26.6663 26.6665C25.93 26.6665 25.333 27.2635 25.333 27.9998C25.333 28.7362 25.93 29.3332 26.6663 29.3332Z" stroke="white" stroke-width="3" stroke-linecap="round" stroke-linejoin="round"/>
<path d="M1.33301 1.3335H6.66634L10.2397 19.1868C10.3616 19.8007 10.6956 20.3521 11.1831 20.7446C11.6706 21.137 12.2806 21.3455 12.9063 21.3335H25.8663C26.4921 21.3455 27.1021 21.137 27.5896 20.7446C28.0771 20.3521 28.4111 19.8007 28.533 19.1868L30.6663 8.00016H7.99967" stroke="white" stroke-width="3" stroke-linecap="round" stroke-linejoin="round"/>
</g>
<defs>
<clipPath id="clip0">
<rect width="32" height="32" fill="white"/>
</clipPath>
</defs>
</svg>
